<?xml version="1.0" encoding="utf-8"?>
<!-- Generator: Adobe Illustrator 22.0.0, SVG Export Plug-In . SVG Version: 6.00 Build 0)  -->
<svg version="1.1" id="图层_1" xmlns="http://www.w3.org/2000/svg" xmlns:xlink="http://www.w3.org/1999/xlink" x="0px" y="0px"
	 viewBox="0 0 32 32" style="enable-background:new 0 0 32 32;" xml:space="preserve">
<style type="text/css">
	.st0{fill:#FFFFFF;}
	.st1{fill:#C2977B;}
</style>
<g>
	<polygon class="st0" points="9.9,18.9 3.2,12.4 12.4,11.1 16.5,2.7 20.6,11.1 29.8,12.4 23.1,18.9 24.7,28 16.5,23.7 8.3,28 	"/>
	<path class="st1" d="M16.5,4.6l3.2,6.5l0.4,0.8l0.8,0.1l7.2,1L22.9,18l-0.6,0.6l0.1,0.8l1.2,7.1l-6.4-3.4l-0.7-0.4l-0.7,0.4
		l-6.4,3.4l1.2-7.1l0.1-0.8L10.1,18l-5.2-5l7.2-1l0.8-0.1l0.4-0.8L16.5,4.6 M16.5,0.9l-4.6,9.4L1.5,11.8L9,19.1L7.2,29.5l9.3-4.9
		l9.3,4.9L24,19.1l7.5-7.3l-10.4-1.5L16.5,0.9L16.5,0.9z"/>
</g>
</svg>
